<?xml version="1.0" standalone="no"?>
<!DOCTYPE svg PUBLIC "-//W3C//DTD SVG 20010904//EN"
 "http://www.w3.org/TR/2001/REC-SVG-20010904/DTD/svg10.dtd">
<svg version="1.0" xmlns="http://www.w3.org/2000/svg"
 width="32.000000pt" height="32.000000pt" viewBox="0 0 32.000000 32.000000"
 preserveAspectRatio="xMidYMid meet">

<g transform="translate(0.000000,32.000000) scale(0.100000,-0.100000)"
fill="#000000" stroke="none">
<path d="M0 294 c0 -16 12 -37 33 -57 20 -19 27 -32 20 -34 -15 -5 -18 -43 -3
-43 6 0 10 -9 10 -19 0 -11 5 -21 12 -23 16 -6 -35 -58 -57 -58 -10 0 -15 -10
-15 -30 0 -27 3 -30 30 -30 20 0 30 5 30 15 0 15 42 65 55 65 3 0 5 -9 5 -20
0 -13 7 -20 20 -20 11 0 20 5 20 10 0 6 9 10 20 10 22 0 27 16 8 23 -9 3 -6
11 9 24 13 11 23 28 23 37 0 9 5 16 10 16 18 0 11 -32 -11 -51 l-22 -19 32
-29 c17 -16 31 -36 31 -45 0 -11 9 -16 30 -16 27 0 30 3 30 30 0 20 -5 30 -15
30 -22 0 -73 52 -57 58 7 2 12 12 12 23 0 10 5 19 10 19 15 0 12 38 -2 43 -8
2 -1 15 19 34 42 40 46 83 7 83 -17 0 -41 -16 -74 -50 -27 -27 -54 -50 -60
-50 -6 0 -33 23 -60 50 -57 58 -100 69 -100 24z m125 -69 c41 -41 75 -81 75
-90 0 -18 -36 -20 -43 -2 -4 9 -8 8 -16 -3 -5 -8 -13 -11 -18 -7 -4 5 -1 12 6
17 11 6 -1 23 -47 68 -61 60 -77 92 -47 92 9 0 49 -34 90 -75z m175 60 c0 -9
-20 -36 -45 -60 -76 -77 -108 -49 -32 30 43 44 77 58 77 30z m0 -255 c0 -5 -4
-10 -10 -10 -5 0 -10 5 -10 10 0 6 5 10 10 10 6 0 10 -4 10 -10z"/>
</g>
</svg>
